<svg width="124" height="124" viewBox="0 0 124 124" fill="none" xmlns="http://www.w3.org/2000/svg">
<rect width="124" height="124" rx="4" fill="#F2EFEB"/>
<path fill-rule="evenodd" clip-rule="evenodd" d="M45.0102 61.9751C40.9786 63 38 66.6115 38 70.9097V81.0269C38 81.564 38.4423 82 38.9863 82C39.5307 82 39.9726 81.564 39.9726 81.0269V78.8244H84.0274V81.0269C84.0274 81.564 84.4693 82 85.0137 82C85.5581 82 86 81.564 86 81.0269V70.9136C86 66.615 83.0214 63.0023 78.9898 61.9759V50.0374C78.9898 48.3601 77.6117 47 75.9114 47H48.0887C46.3887 47 45.0102 48.3601 45.0102 50.0374V61.9751ZM84.0274 71.8867V76.8782H39.9726V71.8867H84.0274ZM83.9619 69.9404C83.4802 66.378 80.388 63.6298 76.6452 63.6298H47.3509C43.6089 63.6298 40.5178 66.3784 40.0377 69.9404H83.9619ZM77.0172 61.6909V61.0156C77.0172 60.1791 76.6803 59.3764 76.0806 58.7847C75.4809 58.1931 74.6674 57.8606 73.8192 57.8606H66.1845C65.3363 57.8606 64.5228 58.1931 63.9231 58.7847C63.3234 59.3764 62.9865 60.1791 62.9865 61.016V61.6835H76.6452C76.7694 61.6835 76.8937 61.6859 77.0172 61.6909ZM61.0139 61.6835V61.0156C61.0139 60.1791 60.677 59.3764 60.0769 58.7847C59.4772 58.1931 58.6637 57.8606 57.8159 57.8606H50.1808C49.333 57.8606 48.5195 58.1931 47.9198 58.7847C47.3197 59.3764 46.9828 60.1791 46.9828 61.016V61.6905C47.1047 61.6859 47.2274 61.6835 47.3509 61.6835H61.0139ZM77.0172 57.007V50.0374C77.0172 49.4348 76.5221 48.9463 75.9114 48.9463H48.0887C47.4779 48.9463 46.9828 49.4348 46.9828 50.0374V57.007C47.8898 56.3028 49.015 55.9144 50.1808 55.9144C52.5341 55.9144 55.4626 55.9144 57.8159 55.9144C59.1869 55.9144 60.5022 56.4515 61.4719 57.4083C61.6653 57.5991 61.8416 57.8034 62.0002 58.0187C62.1584 57.8034 62.3351 57.5991 62.5281 57.4083C63.4978 56.4515 64.8131 55.9144 66.1845 55.9144C68.5374 55.9144 71.4659 55.9144 73.8192 55.9144C74.985 55.9144 76.1106 56.3028 77.0172 57.007Z" fill="#A21D22"/>
</svg>
