<svg width="124" height="124" viewBox="0 0 124 124" fill="none" xmlns="http://www.w3.org/2000/svg">
<rect width="124" height="124" rx="4" fill="#F2EFEB"/>
<path fill-rule="evenodd" clip-rule="evenodd" d="M38 38C38 37.4475 38.4475 37 39 37H43.5C44.0525 37 44.5 37.4475 44.5 38C44.5 38.5525 44.0525 39 43.5 39H42.25V68.9998H43.5C44.0525 68.9998 44.5 69.4473 44.5 69.9998C44.5 70.5523 44.0525 70.9998 43.5 70.9998H39C38.4475 70.9998 38 70.5523 38 69.9998C38 69.4473 38.4475 68.9998 39 68.9998H40.25V39H39C38.4475 39 38 38.5525 38 38ZM52 37C50.895 37 50 37.895 50 39V68.9998C50 70.1048 50.895 70.9998 52 70.9998H82C83.105 70.9998 84 70.1048 84 68.9998V39C84 37.895 83.105 37 82 37H52ZM64 68.9998H82V39H52V56.9999H62C63.105 56.9999 64 57.8948 64 58.9998V68.9998ZM52 58.9998V68.9998H62V58.9998H52ZM50 82C50 82.5525 50.4475 83 51 83C51.5525 83 52 82.5525 52 82V80.75H82V82C82 82.5525 82.4475 83 83 83C83.5525 83 84 82.5525 84 82V77.5001C84 76.9476 83.5525 76.5001 83 76.5001C82.4475 76.5001 82 76.9476 82 77.5001V78.75H52V77.5001C52 76.9476 51.5525 76.5001 51 76.5001C50.4475 76.5001 50 76.9476 50 77.5001V82Z" fill="#A21D22"/>
</svg>
