<svg width="124" height="124" viewBox="0 0 124 124" fill="none" xmlns="http://www.w3.org/2000/svg">
<rect width="124" height="124" rx="4" fill="#F2EFEB"/>
<path fill-rule="evenodd" clip-rule="evenodd" d="M49.9751 79.3774C49.544 81.4423 47.6739 83 45.433 83C42.8746 83 40.7982 80.9713 40.7982 78.4717C40.7982 75.9721 42.8746 73.9434 45.433 73.9434C47.6739 73.9434 49.5441 75.5012 49.9751 77.5661H83.2529C85.4034 77.5661 87.1461 75.8634 87.1461 73.7623V72.3132C87.1461 70.2121 85.4034 68.5095 83.2529 68.5095H64.1573C60.9825 68.5095 58.4102 65.9963 58.4102 62.8944V61.4453C58.4102 58.3434 60.9825 55.8303 64.1573 55.8303H70.5763C70.9888 54.268 72.4418 53.1133 74.1682 53.1133C76.2145 53.1133 77.8761 54.7367 77.8761 56.7359C77.8761 58.7351 76.2145 60.3585 74.1682 60.3585C72.4418 60.3585 70.9888 59.2038 70.5763 57.6416H64.1573C62.0068 57.6416 60.2641 59.3442 60.2641 61.4453V62.8944C60.2641 64.9955 62.0068 66.6982 64.1573 66.6982H83.2529C86.4254 66.6982 89 69.2113 89 72.3132V73.7623C89 76.8642 86.4254 79.3774 83.2529 79.3774H49.9751ZM48.2138 78.4717C48.2138 76.9729 46.967 75.7547 45.4329 75.7547C43.8989 75.7547 42.6521 76.9729 42.6521 78.4717C42.6521 79.9706 43.8989 81.1887 45.4329 81.1887C46.967 81.1887 48.2138 79.9706 48.2138 78.4717ZM72.3146 56.7359C72.3146 57.7367 73.1465 58.5472 74.1685 58.5472C75.1905 58.5472 76.0224 57.7367 76.0224 56.7359C76.0224 55.7374 75.1905 54.9246 74.1685 54.9246C73.1465 54.9246 72.3146 55.7374 72.3146 56.7359ZM45.3887 51.302C50.0166 51.302 53.7755 54.9744 53.7755 59.4961C53.7755 62.6795 51.917 65.4395 49.201 66.7958C48.9647 66.9136 48.6588 67.2713 48.3112 67.6811C47.2962 68.8765 46.1676 70.5905 46.1676 70.5905C45.9961 70.8486 45.7018 71.0048 45.3889 71.0048C45.0738 71.0048 44.7795 70.8486 44.608 70.5905C44.608 70.5905 43.4794 68.8765 42.4644 67.6811C42.1168 67.2713 41.8109 66.9135 41.5745 66.7958C38.8585 65.4396 37 62.6796 37 59.4961C37 54.9746 40.7584 51.302 45.3887 51.302ZM45.3887 53.1133C41.7806 53.1133 38.8535 55.9729 38.8535 59.4961C38.8535 61.9753 40.3042 64.1263 42.4199 65.1836C42.793 65.3715 43.34 65.8764 43.8915 66.524C44.4106 67.1376 44.9598 67.8757 45.3885 68.4779C45.8149 67.8757 46.3641 67.1376 46.8832 66.524C47.4347 65.8764 47.9817 65.3715 48.3571 65.1836C50.4705 64.1263 51.9212 61.9753 51.9212 59.4961C51.9212 55.9731 48.9948 53.1133 45.3887 53.1133ZM45.3887 54.7231C48.0839 54.7231 50.2738 56.8627 50.2738 59.4959C50.2738 62.1314 48.0839 64.271 45.3887 64.271C42.6913 64.271 40.5014 62.1314 40.5014 59.4959C40.5014 56.8627 42.6913 54.7231 45.3887 54.7231ZM45.3887 56.5344C43.7133 56.5344 42.3553 57.8612 42.3553 59.4959C42.3553 61.1329 43.7133 62.4597 45.3887 62.4597C47.0619 62.4597 48.4199 61.1329 48.4199 59.4959C48.4199 57.8612 47.0619 56.5344 45.3887 56.5344ZM85.292 46.7736H75.0952V50.3962C75.0952 50.8966 74.6804 51.3018 74.1682 51.3018C73.6561 51.3018 73.2413 50.8966 73.2413 50.3962V35.9057C73.2413 35.4053 73.6561 35 74.1682 35H85.2917C85.6439 35 85.9637 35.1947 86.1213 35.5004L87.0738 37.3661C87.7968 38.7744 87.382 40.486 86.0912 41.4325L85.8456 41.6136C85.1318 42.1366 84.9024 43.083 85.301 43.8641L86.1098 45.44L85.292 46.7736ZM75.0952 44.9622H83.7923L83.6439 44.6724C82.8444 43.1102 83.3033 41.2128 84.7331 40.1645L84.9811 39.9834C85.5534 39.5623 85.7365 38.8015 85.4167 38.1744L84.7192 36.8113H75.0949L75.0952 44.9622Z" fill="#A21D22"/>
</svg>
