<svg width="124" height="124" viewBox="0 0 124 124" fill="none" xmlns="http://www.w3.org/2000/svg">
<rect width="124" height="124" rx="4" fill="#F2EFEB"/>
<path d="M91.7948 61.7886C85.4003 51.2752 74.2576 45 62 45C49.7404 44.9974 38.6001 51.273 32.2052 61.7886C31.9316 62.227 31.9316 62.773 32.2052 63.2114C38.5997 73.7248 49.7424 80 62 80C74.2596 80 85.3999 73.7245 91.7948 63.2114C92.0684 62.773 92.0684 62.227 91.7948 61.7886ZM62 77.2647C50.9827 77.2647 40.9316 71.7685 34.9719 62.4987C40.9319 53.2421 50.9801 47.7327 62 47.7327C73.0173 47.7327 83.0684 53.2289 89.0281 62.4987C83.0681 71.7553 73.0199 77.2647 62 77.2647ZM62 51.56C55.9864 51.56 51.0901 56.4692 51.0901 62.4987C51.0901 68.5281 55.9864 73.4373 62 73.4373C68.0136 73.4373 72.9099 68.5281 72.9099 62.4987C72.9099 56.4692 68.0136 51.56 62 51.56ZM62 70.702C57.4873 70.702 53.8182 67.0233 53.8182 62.4987C53.8182 57.9741 57.4873 54.2954 62 54.2954C66.5127 54.2954 70.1818 57.9741 70.1818 62.4987C70.1818 67.0233 66.5127 70.702 62 70.702Z" fill="#A21D22"/>
</svg>
