<svg class="" width="36" height="36" viewBox="0 0 37 37" fill="none" xmlns="http://www.w3.org/2000/svg">
    <path class="bg"
          d="M18.5 36.3801C28.4411 36.3801 36.5 28.3213 36.5 18.3801C36.5 8.439 28.4411 0.380127 18.5 0.380127C8.55887 0.380127 0.5 8.439 0.5 18.3801C0.5 28.3213 8.55887 36.3801 18.5 36.3801Z"
          fill="white"/>
    <path class="symbol" fill-rule="evenodd" clip-rule="evenodd"
          d="M8.86937 18.2808C14.237 16.0299 17.8103 14.5343 19.6046 13.8087C24.7115 11.7503 25.785 11.3949 26.4751 11.3801C26.6285 11.3801 26.9659 11.4097 27.1959 11.5874C27.3799 11.7355 27.426 11.928 27.4566 12.0761C27.4873 12.2242 27.518 12.5352 27.4873 12.7721C27.2112 15.5857 26.015 22.4123 25.4016 25.5517C25.1409 26.8844 24.6348 27.3287 24.144 27.3731C23.0705 27.4619 22.2577 26.6919 21.2302 26.0403C19.6046 25.0186 18.6998 24.3818 17.1201 23.3749C15.2952 22.2198 16.476 21.583 17.5189 20.5465C17.7949 20.2799 22.5031 16.1336 22.5951 15.7634C22.6104 15.719 22.6104 15.5413 22.5031 15.4524C22.3957 15.3636 22.2424 15.3932 22.1197 15.4228C21.951 15.4524 19.3745 17.1109 14.3597 20.3836C13.6235 20.8722 12.9641 21.1092 12.366 21.0944C11.7065 21.0796 10.449 20.739 9.49815 20.4428C8.34795 20.0874 7.42779 19.8949 7.50447 19.273C7.55048 18.9472 8.01056 18.6214 8.86937 18.2808Z"
          fill="#1B1B1B"/>
</svg>
