<svg width="187" height="69" viewBox="0 0 187 69" fill="none" xmlns="http://www.w3.org/2000/svg">
<rect x="0.5" y="0.5" width="186" height="67.015" stroke="white" stroke-opacity="0.25"/>
<path d="M49.7507 52.015C59.6959 52.015 67.7582 43.9528 67.7582 34.0075C67.7582 24.0622 59.6959 16 49.7507 16C39.8054 16 31.7432 24.0622 31.7432 34.0075C31.7432 43.9528 39.8054 52.015 49.7507 52.015Z" fill="#1B1B1B"/>
<path d="M49.7507 52.015C59.6959 52.015 67.7582 43.9528 67.7582 34.0075C67.7582 24.0622 59.6959 16 49.7507 16C39.8054 16 31.7432 24.0622 31.7432 34.0075C31.7432 43.9528 39.8054 52.015 49.7507 52.015Z" fill="white"/>
<path fill-rule="evenodd" clip-rule="evenodd" d="M39.8847 33.8133C45.1325 31.5342 48.6261 30.0198 50.3803 29.2851C55.3733 27.201 56.4228 26.8412 57.0975 26.8262C57.2475 26.8262 57.5773 26.8562 57.8022 27.0361C57.9822 27.186 58.0271 27.3809 58.0571 27.5309C58.0871 27.6808 58.1171 27.9957 58.0871 28.2356C57.8172 31.0844 56.6477 37.9965 56.048 41.1752C55.7931 42.5246 55.2983 42.9744 54.8185 43.0194C53.7689 43.1094 52.9743 42.3297 51.9697 41.67C50.3803 40.6354 49.4957 39.9907 47.9513 38.9711C46.1671 37.8016 47.3216 37.1569 48.3412 36.1073C48.6111 35.8374 53.2142 31.6392 53.3041 31.2643C53.3191 31.2193 53.3191 31.0394 53.2142 30.9495C53.1092 30.8595 52.9593 30.8895 52.8393 30.9195C52.6744 30.9495 50.1554 32.6288 45.2525 35.9424C44.5328 36.4372 43.888 36.6771 43.3033 36.6621C42.6586 36.6471 41.4291 36.3022 40.4995 36.0023C39.3749 35.6425 38.4753 35.4476 38.5503 34.8178C38.5952 34.488 39.0451 34.1581 39.8847 33.8133Z" fill="#1B1B1B"/>
<path d="M153.925 40.626L153.934 34.245C153.934 33.495 153.724 32.907 153.304 32.481C152.89 32.049 152.362 31.833 151.72 31.833C151.354 31.833 150.997 31.917 150.649 32.085C150.301 32.253 150.013 32.523 149.785 32.895C149.563 33.267 149.452 33.753 149.452 34.353L148.669 34.128C148.651 33.432 148.786 32.823 149.074 32.301C149.368 31.779 149.77 31.374 150.28 31.086C150.796 30.792 151.378 30.645 152.026 30.645C153.004 30.645 153.787 30.948 154.375 31.554C154.963 32.154 155.257 32.967 155.257 33.993L155.248 40.626H153.925ZM142.324 40.626V30.906H143.512V33.3H143.656V40.626H142.324ZM148.138 40.626L148.147 34.335C148.147 33.561 147.94 32.952 147.526 32.508C147.118 32.058 146.578 31.833 145.906 31.833C145.234 31.833 144.691 32.064 144.277 32.526C143.863 32.982 143.656 33.591 143.656 34.353L142.864 33.921C142.864 33.297 143.011 32.739 143.305 32.247C143.599 31.749 144.001 31.359 144.511 31.077C145.021 30.789 145.6 30.645 146.248 30.645C146.866 30.645 147.415 30.777 147.895 31.041C148.381 31.305 148.762 31.689 149.038 32.193C149.314 32.697 149.452 33.309 149.452 34.029L149.443 40.626H148.138Z" fill="white"/>
<path d="M135.112 40.896C134.38 40.896 133.765 40.764 133.267 40.5C132.775 40.236 132.406 39.885 132.16 39.447C131.914 39.009 131.791 38.532 131.791 38.016C131.791 37.488 131.896 37.038 132.106 36.666C132.322 36.288 132.613 35.979 132.979 35.739C133.351 35.499 133.78 35.316 134.266 35.19C134.758 35.07 135.301 34.965 135.895 34.875C136.495 34.779 137.08 34.698 137.65 34.632C138.226 34.56 138.73 34.491 139.162 34.425L138.694 34.713C138.712 33.753 138.526 33.042 138.136 32.58C137.746 32.118 137.068 31.887 136.102 31.887C135.436 31.887 134.872 32.037 134.41 32.337C133.954 32.637 133.633 33.111 133.447 33.759L132.16 33.381C132.382 32.511 132.829 31.836 133.501 31.356C134.173 30.876 135.046 30.636 136.12 30.636C137.008 30.636 137.761 30.804 138.379 31.14C139.003 31.47 139.444 31.95 139.702 32.58C139.822 32.862 139.9 33.177 139.936 33.525C139.972 33.873 139.99 34.227 139.99 34.587V40.626H138.811V38.187L139.153 38.331C138.823 39.165 138.31 39.801 137.614 40.239C136.918 40.677 136.084 40.896 135.112 40.896ZM135.265 39.753C135.883 39.753 136.423 39.642 136.885 39.42C137.347 39.198 137.719 38.895 138.001 38.511C138.283 38.121 138.466 37.683 138.55 37.197C138.622 36.885 138.661 36.543 138.667 36.171C138.673 35.793 138.676 35.511 138.676 35.325L139.18 35.586C138.73 35.646 138.241 35.706 137.713 35.766C137.191 35.826 136.675 35.895 136.165 35.973C135.661 36.051 135.205 36.144 134.797 36.252C134.521 36.33 134.254 36.441 133.996 36.585C133.738 36.723 133.525 36.909 133.357 37.143C133.195 37.377 133.114 37.668 133.114 38.016C133.114 38.298 133.183 38.571 133.321 38.835C133.465 39.099 133.693 39.318 134.005 39.492C134.323 39.666 134.743 39.753 135.265 39.753Z" fill="white"/>
<path d="M126.214 40.626V30.906H127.402V33.246L127.168 32.94C127.276 32.652 127.417 32.388 127.591 32.148C127.765 31.902 127.954 31.701 128.158 31.545C128.41 31.323 128.704 31.155 129.04 31.041C129.376 30.921 129.715 30.852 130.057 30.834C130.399 30.81 130.711 30.834 130.993 30.906V32.148C130.639 32.058 130.252 32.037 129.832 32.085C129.412 32.133 129.025 32.301 128.671 32.589C128.347 32.841 128.104 33.144 127.942 33.498C127.78 33.846 127.672 34.218 127.618 34.614C127.564 35.004 127.537 35.391 127.537 35.775V40.626H126.214Z" fill="white"/>
<path d="M119.423 45.216C118.925 45.216 118.433 45.141 117.947 44.991C117.467 44.847 117.023 44.616 116.615 44.298C116.207 43.986 115.865 43.578 115.589 43.074L116.786 42.408C117.056 42.948 117.434 43.335 117.92 43.569C118.412 43.809 118.913 43.929 119.423 43.929C120.125 43.929 120.692 43.797 121.124 43.533C121.562 43.275 121.88 42.891 122.078 42.381C122.276 41.871 122.372 41.235 122.366 40.473V37.881H122.519V30.906H123.698V40.491C123.698 40.767 123.689 41.031 123.671 41.283C123.659 41.541 123.632 41.793 123.59 42.039C123.476 42.765 123.239 43.362 122.879 43.83C122.525 44.298 122.057 44.646 121.475 44.874C120.899 45.102 120.215 45.216 119.423 45.216ZM119.333 40.896C118.427 40.896 117.653 40.671 117.011 40.221C116.369 39.765 115.877 39.15 115.535 38.376C115.193 37.602 115.022 36.729 115.022 35.757C115.022 34.791 115.19 33.921 115.526 33.147C115.868 32.373 116.357 31.761 116.993 31.311C117.629 30.861 118.391 30.636 119.279 30.636C120.191 30.636 120.959 30.858 121.583 31.302C122.207 31.746 122.678 32.355 122.996 33.129C123.32 33.897 123.482 34.773 123.482 35.757C123.482 36.723 123.323 37.596 123.005 38.376C122.687 39.15 122.219 39.765 121.601 40.221C120.983 40.671 120.227 40.896 119.333 40.896ZM119.468 39.663C120.158 39.663 120.728 39.495 121.178 39.159C121.628 38.823 121.964 38.361 122.186 37.773C122.408 37.179 122.519 36.507 122.519 35.757C122.519 34.995 122.408 34.323 122.186 33.741C121.964 33.153 121.628 32.694 121.178 32.364C120.734 32.034 120.173 31.869 119.495 31.869C118.799 31.869 118.223 32.04 117.767 32.382C117.311 32.724 116.972 33.189 116.75 33.777C116.534 34.365 116.426 35.025 116.426 35.757C116.426 36.495 116.537 37.161 116.759 37.755C116.987 38.343 117.326 38.808 117.776 39.15C118.226 39.492 118.79 39.663 119.468 39.663Z" fill="white"/>
<path d="M109.145 40.896C108.197 40.896 107.375 40.686 106.679 40.266C105.989 39.846 105.452 39.255 105.068 38.493C104.684 37.731 104.492 36.837 104.492 35.811C104.492 34.749 104.681 33.831 105.059 33.057C105.437 32.283 105.968 31.686 106.652 31.266C107.342 30.846 108.155 30.636 109.091 30.636C110.051 30.636 110.87 30.858 111.548 31.302C112.226 31.74 112.739 32.37 113.087 33.192C113.435 34.014 113.594 34.995 113.564 36.135H112.214V35.667C112.19 34.407 111.917 33.456 111.395 32.814C110.879 32.172 110.123 31.851 109.127 31.851C108.083 31.851 107.282 32.19 106.724 32.868C106.172 33.546 105.896 34.512 105.896 35.766C105.896 36.99 106.172 37.941 106.724 38.619C107.282 39.291 108.071 39.627 109.091 39.627C109.787 39.627 110.393 39.468 110.909 39.15C111.431 38.826 111.842 38.361 112.142 37.755L113.375 38.232C112.991 39.078 112.424 39.735 111.674 40.203C110.93 40.665 110.087 40.896 109.145 40.896ZM105.428 36.135V35.028H112.853V36.135H105.428Z" fill="white"/>
<path d="M101.011 40.626V27.396H102.334V40.626H101.011Z" fill="white"/>
<path d="M94.415 40.896C93.467 40.896 92.645 40.686 91.949 40.266C91.259 39.846 90.722 39.255 90.338 38.493C89.954 37.731 89.762 36.837 89.762 35.811C89.762 34.749 89.951 33.831 90.329 33.057C90.707 32.283 91.238 31.686 91.922 31.266C92.612 30.846 93.425 30.636 94.361 30.636C95.321 30.636 96.14 30.858 96.818 31.302C97.496 31.74 98.009 32.37 98.357 33.192C98.705 34.014 98.864 34.995 98.834 36.135H97.484V35.667C97.46 34.407 97.187 33.456 96.665 32.814C96.149 32.172 95.393 31.851 94.397 31.851C93.353 31.851 92.552 32.19 91.994 32.868C91.442 33.546 91.166 34.512 91.166 35.766C91.166 36.99 91.442 37.941 91.994 38.619C92.552 39.291 93.341 39.627 94.361 39.627C95.057 39.627 95.663 39.468 96.179 39.15C96.701 38.826 97.112 38.361 97.412 37.755L98.645 38.232C98.261 39.078 97.694 39.735 96.944 40.203C96.2 40.665 95.357 40.896 94.415 40.896ZM90.698 36.135V35.028H98.123V36.135H90.698Z" fill="white"/>
<path d="M84.4503 40.626V28.935H79.9233V27.666H90.3003V28.935H85.7733V40.626H84.4503Z" fill="white"/>
</svg>
