<svg width="187" height="68" viewBox="0 0 187 68" fill="none" xmlns="http://www.w3.org/2000/svg">
<rect x="0.5" y="0.5" width="186" height="67" stroke="white" stroke-opacity="0.25"/>
<circle cx="45.1084" cy="34" r="18" fill="white"/>
<path d="M45.1112 22.3024H45.1053C38.6556 22.3024 33.4106 27.5487 33.4106 34C33.4106 36.5588 34.2353 38.9305 35.6376 40.8562L34.1798 45.2019L38.676 43.7645C40.5257 44.9899 42.7322 45.6976 45.1112 45.6976C51.5609 45.6976 56.8058 40.4497 56.8058 34C56.8058 27.5502 51.5609 22.3024 45.1112 22.3024Z" fill="#1B1B1B"/>
<path d="M51.9183 38.8205C51.6361 39.6174 50.516 40.2783 49.6226 40.4713C49.0114 40.6015 48.2131 40.7053 45.5255 39.5911C42.0879 38.1669 39.8741 34.6737 39.7016 34.4471C39.5364 34.2204 38.3125 32.5974 38.3125 30.9188C38.3125 29.2402 39.165 28.4228 39.5086 28.0719C39.7908 27.7838 40.2572 27.6522 40.7047 27.6522C40.8494 27.6522 40.9796 27.6595 41.0965 27.6654C41.4401 27.68 41.6127 27.7005 41.8393 28.243C42.1215 28.9229 42.8088 30.6015 42.8906 30.774C42.974 30.9466 43.0573 31.1805 42.9404 31.4072C42.8307 31.6411 42.7342 31.7449 42.5617 31.9438C42.3891 32.1426 42.2253 32.2947 42.0528 32.5082C41.8949 32.6939 41.7165 32.8927 41.9154 33.2364C42.1142 33.5727 42.8015 34.6942 43.8133 35.5949C45.119 36.7573 46.1777 37.1287 46.5564 37.2867C46.8386 37.4036 47.1749 37.3758 47.3811 37.1565C47.6428 36.8743 47.9659 36.4064 48.2949 35.9458C48.5289 35.6154 48.8243 35.5744 49.1342 35.6914C49.4501 35.8011 51.1214 36.6272 51.465 36.7983C51.8086 36.9708 52.0352 37.0527 52.1186 37.1975C52.2005 37.3422 52.2005 38.0221 51.9183 38.8205Z" fill="#FAFAFA"/>
<path d="M155.581 40.77C154.687 40.77 153.931 40.545 153.313 40.095C152.695 39.639 152.227 39.024 151.909 38.25C151.591 37.47 151.432 36.597 151.432 35.631C151.432 34.647 151.591 33.771 151.909 33.003C152.233 32.229 152.707 31.62 153.331 31.176C153.955 30.732 154.723 30.51 155.635 30.51C156.523 30.51 157.285 30.735 157.921 31.185C158.557 31.635 159.043 32.247 159.379 33.021C159.721 33.795 159.892 34.665 159.892 35.631C159.892 36.603 159.721 37.476 159.379 38.25C159.037 39.024 158.545 39.639 157.903 40.095C157.261 40.545 156.487 40.77 155.581 40.77ZM151.207 44.82V30.78H152.395V38.097H152.539V44.82H151.207ZM155.446 39.537C156.124 39.537 156.688 39.366 157.138 39.024C157.588 38.682 157.924 38.217 158.146 37.629C158.374 37.035 158.488 36.369 158.488 35.631C158.488 34.899 158.377 34.239 158.155 33.651C157.933 33.063 157.594 32.598 157.138 32.256C156.688 31.914 156.115 31.743 155.419 31.743C154.741 31.743 154.177 31.908 153.727 32.238C153.283 32.568 152.95 33.027 152.728 33.615C152.506 34.197 152.395 34.869 152.395 35.631C152.395 36.381 152.506 37.053 152.728 37.647C152.95 38.235 153.286 38.697 153.736 39.033C154.186 39.369 154.756 39.537 155.446 39.537Z" fill="white"/>
<path d="M144.929 40.77C144.035 40.77 143.279 40.545 142.661 40.095C142.043 39.639 141.575 39.024 141.257 38.25C140.939 37.47 140.78 36.597 140.78 35.631C140.78 34.647 140.939 33.771 141.257 33.003C141.581 32.229 142.055 31.62 142.679 31.176C143.303 30.732 144.071 30.51 144.983 30.51C145.871 30.51 146.633 30.735 147.269 31.185C147.905 31.635 148.391 32.247 148.727 33.021C149.069 33.795 149.24 34.665 149.24 35.631C149.24 36.603 149.069 37.476 148.727 38.25C148.385 39.024 147.893 39.639 147.251 40.095C146.609 40.545 145.835 40.77 144.929 40.77ZM140.555 44.82V30.78H141.743V38.097H141.887V44.82H140.555ZM144.794 39.537C145.472 39.537 146.036 39.366 146.486 39.024C146.936 38.682 147.272 38.217 147.494 37.629C147.722 37.035 147.836 36.369 147.836 35.631C147.836 34.899 147.725 34.239 147.503 33.651C147.281 33.063 146.942 32.598 146.486 32.256C146.036 31.914 145.463 31.743 144.767 31.743C144.089 31.743 143.525 31.908 143.075 32.238C142.631 32.568 142.298 33.027 142.076 33.615C141.854 34.197 141.743 34.869 141.743 35.631C141.743 36.381 141.854 37.053 142.076 37.647C142.298 38.235 142.634 38.697 143.084 39.033C143.534 39.369 144.104 39.537 144.794 39.537Z" fill="white"/>
<path d="M133.343 40.77C132.611 40.77 131.996 40.638 131.498 40.374C131.006 40.11 130.637 39.759 130.391 39.321C130.145 38.883 130.022 38.406 130.022 37.89C130.022 37.362 130.127 36.912 130.337 36.54C130.553 36.162 130.844 35.853 131.21 35.613C131.582 35.373 132.011 35.19 132.497 35.064C132.989 34.944 133.532 34.839 134.126 34.749C134.726 34.653 135.311 34.572 135.881 34.506C136.457 34.434 136.961 34.365 137.393 34.299L136.925 34.587C136.943 33.627 136.757 32.916 136.367 32.454C135.977 31.992 135.299 31.761 134.333 31.761C133.667 31.761 133.103 31.911 132.641 32.211C132.185 32.511 131.864 32.985 131.678 33.633L130.391 33.255C130.613 32.385 131.06 31.71 131.732 31.23C132.404 30.75 133.277 30.51 134.351 30.51C135.239 30.51 135.992 30.678 136.61 31.014C137.234 31.344 137.675 31.824 137.933 32.454C138.053 32.736 138.131 33.051 138.167 33.399C138.203 33.747 138.221 34.101 138.221 34.461V40.5H137.042V38.061L137.384 38.205C137.054 39.039 136.541 39.675 135.845 40.113C135.149 40.551 134.315 40.77 133.343 40.77ZM133.496 39.627C134.114 39.627 134.654 39.516 135.116 39.294C135.578 39.072 135.95 38.769 136.232 38.385C136.514 37.995 136.697 37.557 136.781 37.071C136.853 36.759 136.892 36.417 136.898 36.045C136.904 35.667 136.907 35.385 136.907 35.199L137.411 35.46C136.961 35.52 136.472 35.58 135.944 35.64C135.422 35.7 134.906 35.769 134.396 35.847C133.892 35.925 133.436 36.018 133.028 36.126C132.752 36.204 132.485 36.315 132.227 36.459C131.969 36.597 131.756 36.783 131.588 37.017C131.426 37.251 131.345 37.542 131.345 37.89C131.345 38.172 131.414 38.445 131.552 38.709C131.696 38.973 131.924 39.192 132.236 39.366C132.554 39.54 132.974 39.627 133.496 39.627Z" fill="white"/>
<path d="M124.732 40.761C123.592 40.761 122.653 40.515 121.915 40.023C121.183 39.531 120.733 38.847 120.565 37.971L121.915 37.746C122.059 38.298 122.386 38.739 122.896 39.069C123.412 39.393 124.048 39.555 124.804 39.555C125.542 39.555 126.124 39.402 126.55 39.096C126.976 38.784 127.189 38.361 127.189 37.827C127.189 37.527 127.12 37.284 126.982 37.098C126.85 36.906 126.577 36.729 126.163 36.567C125.749 36.405 125.131 36.213 124.309 35.991C123.427 35.751 122.737 35.511 122.239 35.271C121.741 35.031 121.387 34.755 121.177 34.443C120.967 34.125 120.862 33.738 120.862 33.282C120.862 32.73 121.018 32.247 121.33 31.833C121.642 31.413 122.074 31.089 122.626 30.861C123.178 30.627 123.82 30.51 124.552 30.51C125.284 30.51 125.938 30.63 126.514 30.87C127.096 31.104 127.564 31.434 127.918 31.86C128.272 32.286 128.482 32.781 128.548 33.345L127.198 33.588C127.108 33.018 126.823 32.568 126.343 32.238C125.869 31.902 125.266 31.728 124.534 31.716C123.844 31.698 123.283 31.83 122.851 32.112C122.419 32.388 122.203 32.757 122.203 33.219C122.203 33.477 122.281 33.699 122.437 33.885C122.593 34.065 122.875 34.236 123.283 34.398C123.697 34.56 124.285 34.737 125.047 34.929C125.941 35.157 126.643 35.397 127.153 35.649C127.663 35.901 128.026 36.198 128.242 36.54C128.458 36.882 128.566 37.305 128.566 37.809C128.566 38.727 128.224 39.45 127.54 39.978C126.862 40.5 125.926 40.761 124.732 40.761Z" fill="white"/>
<path d="M119.19 40.5C118.644 40.614 118.104 40.659 117.57 40.635C117.042 40.611 116.568 40.497 116.148 40.293C115.734 40.089 115.419 39.771 115.203 39.339C115.029 38.979 114.933 38.616 114.915 38.25C114.903 37.878 114.897 37.455 114.897 36.981V28.08H116.211V36.927C116.211 37.335 116.214 37.677 116.22 37.953C116.232 38.223 116.295 38.463 116.409 38.673C116.625 39.075 116.967 39.315 117.435 39.393C117.909 39.471 118.494 39.453 119.19 39.339V40.5ZM112.818 31.914V30.78H119.19V31.914H112.818Z" fill="white"/>
<path d="M106.677 40.77C105.945 40.77 105.33 40.638 104.832 40.374C104.34 40.11 103.971 39.759 103.725 39.321C103.479 38.883 103.356 38.406 103.356 37.89C103.356 37.362 103.461 36.912 103.671 36.54C103.887 36.162 104.178 35.853 104.544 35.613C104.916 35.373 105.345 35.19 105.831 35.064C106.323 34.944 106.866 34.839 107.46 34.749C108.06 34.653 108.645 34.572 109.215 34.506C109.791 34.434 110.295 34.365 110.727 34.299L110.259 34.587C110.277 33.627 110.091 32.916 109.701 32.454C109.311 31.992 108.633 31.761 107.667 31.761C107.001 31.761 106.437 31.911 105.975 32.211C105.519 32.511 105.198 32.985 105.012 33.633L103.725 33.255C103.947 32.385 104.394 31.71 105.066 31.23C105.738 30.75 106.611 30.51 107.685 30.51C108.573 30.51 109.326 30.678 109.944 31.014C110.568 31.344 111.009 31.824 111.267 32.454C111.387 32.736 111.465 33.051 111.501 33.399C111.537 33.747 111.555 34.101 111.555 34.461V40.5H110.376V38.061L110.718 38.205C110.388 39.039 109.875 39.675 109.179 40.113C108.483 40.551 107.649 40.77 106.677 40.77ZM106.83 39.627C107.448 39.627 107.988 39.516 108.45 39.294C108.912 39.072 109.284 38.769 109.566 38.385C109.848 37.995 110.031 37.557 110.115 37.071C110.187 36.759 110.226 36.417 110.232 36.045C110.238 35.667 110.241 35.385 110.241 35.199L110.745 35.46C110.295 35.52 109.806 35.58 109.278 35.64C108.756 35.7 108.24 35.769 107.73 35.847C107.226 35.925 106.77 36.018 106.362 36.126C106.086 36.204 105.819 36.315 105.561 36.459C105.303 36.597 105.09 36.783 104.922 37.017C104.76 37.251 104.679 37.542 104.679 37.89C104.679 38.172 104.748 38.445 104.886 38.709C105.03 38.973 105.258 39.192 105.57 39.366C105.888 39.54 106.308 39.627 106.83 39.627Z" fill="white"/>
<path d="M100.228 40.5V35.541C100.228 35.001 100.177 34.506 100.075 34.056C99.9732 33.6 99.8082 33.204 99.5802 32.868C99.3582 32.526 99.0672 32.262 98.7072 32.076C98.3532 31.89 97.9212 31.797 97.4112 31.797C96.9432 31.797 96.5292 31.878 96.1692 32.04C95.8152 32.202 95.5152 32.436 95.2692 32.742C95.0292 33.042 94.8462 33.408 94.7202 33.84C94.5942 34.272 94.5312 34.764 94.5312 35.316L93.5952 35.109C93.5952 34.113 93.7692 33.276 94.1172 32.598C94.4652 31.92 94.9452 31.407 95.5572 31.059C96.1692 30.711 96.8712 30.537 97.6632 30.537C98.2452 30.537 98.7522 30.627 99.1842 30.807C99.6222 30.987 99.9912 31.23 100.291 31.536C100.597 31.842 100.843 32.193 101.029 32.589C101.215 32.979 101.35 33.396 101.434 33.84C101.518 34.278 101.56 34.716 101.56 35.154V40.5H100.228ZM93.1992 40.5V27.54H94.3962V34.857H94.5312V40.5H93.1992Z" fill="white"/>
<path d="M79.1493 40.5L75.4053 27.54H76.7823L79.8153 38.241L82.8303 27.549L84.2163 27.54L87.2493 38.241L90.2643 27.54H91.6503L87.9153 40.5H86.5833L83.5233 29.871L80.4813 40.5H79.1493Z" fill="white"/>
</svg>
