<svg width="34" height="34" viewBox="0 0 34 34" fill="none" xmlns="http://www.w3.org/2000/svg">
<g id="wt-icon">
<circle id="bg" cx="17" cy="17.0005" r="17" fill="#1B1B1B"/>
<path id="bg-symbol" d="M17.0027 6.00049H16.9973C10.9321 6.00049 6 10.934 6 17.0005C6 19.4067 6.7755 21.637 8.09413 23.4479L6.72325 27.5344L10.9514 26.1827C12.6908 27.335 14.7656 28.0005 17.0027 28.0005C23.0679 28.0005 28 23.0656 28 17.0005C28 10.9354 23.0679 6.00049 17.0027 6.00049Z" fill="white"/>
<path id="symbol" d="M23.7676 21.392C23.5028 22.1334 22.4518 22.7484 21.6134 22.928C21.0398 23.0491 20.2907 23.1457 17.7687 22.109C14.5428 20.7838 12.4654 17.5336 12.3035 17.3227C12.1485 17.1118 11 15.6017 11 14.0398C11 12.478 11.7999 11.7175 12.1224 11.391C12.3872 11.1229 12.8249 11.0005 13.2448 11.0005C13.3806 11.0005 13.5028 11.0073 13.6125 11.0127C13.935 11.0263 14.0969 11.0454 14.3096 11.5501C14.5744 12.1828 15.2193 13.7446 15.2961 13.9052C15.3743 14.0657 15.4526 14.2834 15.3428 14.4942C15.2399 14.7119 15.1493 14.8085 14.9874 14.9935C14.8255 15.1786 14.6718 15.3201 14.5099 15.5187C14.3617 15.6915 14.1943 15.8765 14.3809 16.1962C14.5675 16.5091 15.2124 17.5526 16.1619 18.3907C17.3872 19.4723 18.3807 19.8179 18.736 19.9648C19.0009 20.0736 19.3165 20.0478 19.5099 19.8437C19.7555 19.5811 20.0588 19.1458 20.3675 18.7172C20.587 18.4098 20.8642 18.3717 21.1551 18.4805C21.4515 18.5825 23.0198 19.3512 23.3423 19.5104C23.6647 19.6709 23.8774 19.7471 23.9556 19.8818C24.0325 20.0165 24.0325 20.6491 23.7676 21.392Z" fill="#1B1B1B"/>
</g>
</svg>
