<svg width="36" height="36" viewBox="0 0 36 36" fill="none" xmlns="http://www.w3.org/2000/svg">
<g clip-path="url(#clip0_276_3800)">
<path d="M18.0075 36.015C27.9528 36.015 36.015 27.9528 36.015 18.0075C36.015 8.06223 27.9528 0 18.0075 0C8.06223 0 0 8.06223 0 18.0075C0 27.9528 8.06223 36.015 18.0075 36.015Z" fill="black"/>
<path d="M18.0075 36.015C27.9528 36.015 36.015 27.9528 36.015 18.0075C36.015 8.06223 27.9528 0 18.0075 0C8.06223 0 0 8.06223 0 18.0075C0 27.9528 8.06223 36.015 18.0075 36.015Z" fill="white"/>
<path fill-rule="evenodd" clip-rule="evenodd" d="M8.14155 17.8133C13.3894 15.5342 16.8829 14.0198 18.6372 13.2851C23.6301 11.201 24.6797 10.8412 25.3544 10.8262C25.5043 10.8262 25.8342 10.8562 26.0591 11.0361C26.239 11.186 26.284 11.3809 26.314 11.5309C26.344 11.6808 26.3739 11.9957 26.344 12.2356C26.0741 15.0844 24.9046 21.9965 24.3048 25.1752C24.0499 26.5246 23.5551 26.9744 23.0753 27.0194C22.0258 27.1094 21.2311 26.3297 20.2265 25.67C18.6372 24.6354 17.7525 23.9907 16.2082 22.9711C14.4239 21.8016 15.5784 21.1569 16.598 20.1073C16.8679 19.8374 21.471 15.6392 21.561 15.2643C21.5759 15.2193 21.5759 15.0394 21.471 14.9495C21.366 14.8595 21.2161 14.8895 21.0961 14.9195C20.9312 14.9495 18.4123 16.6288 13.5093 19.9424C12.7896 20.4372 12.1449 20.6771 11.5601 20.6621C10.9154 20.6471 9.6859 20.3022 8.75629 20.0023C7.63176 19.6425 6.73213 19.4476 6.8071 18.8178C6.85208 18.488 7.3019 18.1581 8.14155 17.8133Z" fill="black"/>
</g>
<defs>
<clipPath id="clip0_276_3800">
<rect width="36" height="36" fill="white"/>
</clipPath>
</defs>
</svg>
