<svg width="35" height="34" viewBox="0 0 35 34" fill="none" xmlns="http://www.w3.org/2000/svg">
<g clip-path="url(#clip0_279_491)">
<circle cx="17.5" cy="17" r="17" fill="white"/>
<path d="M17.5027 6H17.4973C11.4321 6 6.5 10.9335 6.5 17C6.5 19.4062 7.2755 21.6365 8.59413 23.4474L7.22325 27.5339L11.4514 26.1823C13.1908 27.3345 15.2656 28 17.5027 28C23.5679 28 28.5 23.0651 28.5 17C28.5 10.9349 23.5679 6 17.5027 6Z" fill="#1B1B1B"/>
<path d="M24.2676 21.3915C24.0028 22.133 22.9518 22.7479 22.1134 22.9275C21.5398 23.0486 20.7907 23.1452 18.2687 22.1085C15.0428 20.7833 12.9654 17.5331 12.8035 17.3222C12.6485 17.1114 11.5 15.6012 11.5 14.0394C11.5 12.4775 12.2999 11.717 12.6224 11.3905C12.8872 11.1224 13.3249 11 13.7448 11C13.8806 11 14.0028 11.0068 14.1125 11.0122C14.435 11.0258 14.5969 11.0449 14.8096 11.5496C15.0744 12.1823 15.7193 13.7441 15.7961 13.9047C15.8743 14.0652 15.9526 14.2829 15.8428 14.4938C15.7399 14.7114 15.6493 14.808 15.4874 14.9931C15.3255 15.1781 15.1718 15.3196 15.0099 15.5182C14.8617 15.691 14.6943 15.876 14.8809 16.1957C15.0675 16.5087 15.7124 17.5522 16.6619 18.3902C17.8872 19.4718 18.8807 19.8174 19.236 19.9643C19.5009 20.0732 19.8165 20.0473 20.0099 19.8432C20.2555 19.5807 20.5588 19.1453 20.8675 18.7167C21.087 18.4093 21.3642 18.3712 21.6551 18.48C21.9515 18.5821 23.5198 19.3507 23.8423 19.5099C24.1647 19.6705 24.3774 19.7466 24.4556 19.8813C24.5325 20.016 24.5325 20.6487 24.2676 21.3915Z" fill="#FAFAFA"/>
</g>
<defs>
<clipPath id="clip0_279_491">
<rect width="34" height="34" fill="white" transform="translate(0.5)"/>
</clipPath>
</defs>
</svg>
